<?xml version="1.0" encoding="iso-8859-1"?>
<!-- Generator: Adobe Illustrator 19.0.0, SVG Export Plug-In . SVG Version: 6.00 Build 0)  -->
<svg version="1.1" id="Layer_1" xmlns="http://www.w3.org/2000/svg" xmlns:xlink="http://www.w3.org/1999/xlink" x="0px" y="0px"
	 viewBox="0 0 512 512" style="enable-background:new 0 0 512 512;" xml:space="preserve">
<g>
	<g>
		<path style="fill:#008DAF;" d="M504.5,151.464c-4.143,0-7.5-3.357-7.5-7.5V42.227h-21.43c-4.143,0-7.5-3.358-7.5-7.5
			c0-4.143,3.357-7.5,7.5-7.5h23.854c6.934,0,12.575,5.642,12.575,12.575v104.162C512,148.106,508.643,151.464,504.5,151.464z"/>
	</g>
	<g>
		<path style="fill:#008DAF;" d="M459.49,461.625c-4.143,0-7.5-3.357-7.5-7.5v-20.482c0-4.143,3.357-7.5,7.5-7.5
			c4.143,0,7.5,3.357,7.5,7.5v20.482C466.99,458.268,463.633,461.625,459.49,461.625z"/>
	</g>
	<g>
		<g>
			<path style="fill:#FF3D6C;" d="M30.322,444.807v42.202c0,2.113,1.195,4.054,3.105,5.039c0.854,0.44,1.784,0.656,2.715,0.656
				c1.154,0,2.304-0.335,3.287-0.995l21.715-14.546l24.268,15.089c0.951,0.59,2.032,0.887,3.123,0.887
				c0.961,0,1.927-0.234,2.799-0.704c1.865-1.001,3.02-2.913,3.02-4.991v-42.637H30.322z"/>
		</g>
		<g>
			<path style="fill:#B2B4CE;" d="M394.48,18.861h-52.863v431.411h52.863c3.819,0,6.944-3.079,6.944-6.846V25.707
				C401.425,21.941,398.3,18.861,394.48,18.861z"/>
		</g>
		<g>
			<path style="fill:#CFCCD6;" d="M368.14,18.861h-26.522v431.411h26.522c3.819,0,6.945-3.079,6.945-6.846V25.707
				C375.085,21.941,371.959,18.861,368.14,18.861z"/>
		</g>
		<g>
			<g>
				<path style="fill:#FFCB00;" d="M346.693,164.852c-2.792,0-5.076,2.284-5.076,5.076v69.83c0,2.791,2.284,5.075,5.076,5.075
					h54.324c2.791,0,5.075-2.284,5.075-5.075v-69.83c0-2.792-2.284-5.076-5.075-5.076H346.693z"/>
			</g>
		</g>
		<g>
			<g>
				<path style="fill:#FF5E97;" d="M346.693,93.798c-2.792,0-5.076,2.284-5.076,5.075v69.829c0,2.792,2.284,5.075,5.076,5.075
					h54.324c2.791,0,5.075-2.283,5.075-5.075V98.873c0-2.791-2.284-5.075-5.075-5.075H346.693z"/>
			</g>
		</g>
		<g>
			<g>
				<path style="fill:#82DDAB;" d="M346.693,18.861c-2.792,0-5.076,2.284-5.076,5.075v69.83c0,2.792,2.284,5.076,5.076,5.076h54.324
					c2.791,0,5.075-2.284,5.075-5.076v-69.83c0-2.791-2.284-5.075-5.075-5.075H346.693z"/>
			</g>
			<g style="opacity:0.1;">
				<path d="M363.91,93.767v-69.83c0-2.791,2.284-5.075,5.075-5.075h-22.292c-2.792,0-5.076,2.284-5.076,5.075v69.83
					c0,2.792,2.284,5.076,5.076,5.076h22.292C366.194,98.843,363.91,96.559,363.91,93.767z"/>
			</g>
			<g style="opacity:0.1;">
				<path d="M363.91,168.702v-69.83c0-2.792,2.284-5.075,5.075-5.075h-22.292c-2.792,0-5.076,2.283-5.076,5.075v69.83
					c0,2.792,2.284,5.075,5.076,5.075h22.292C366.194,173.777,363.91,171.494,363.91,168.702z"/>
			</g>
			<g style="opacity:0.1;">
				<path d="M363.91,239.759v-69.83c0-2.792,2.284-5.076,5.075-5.076h-22.292c-2.792,0-5.076,2.284-5.076,5.076v69.83
					c0,2.791,2.284,5.075,5.076,5.075h22.292C366.194,244.834,363.91,242.55,363.91,239.759z"/>
			</g>
		</g>
		<g>
			<path style="fill:#F6B245;" d="M340.257,18.861H13.891C6.251,18.861,0,25.021,0,32.553v404.028
				c0,7.532,6.251,13.691,13.891,13.691h326.366c3.819,0,6.944-3.079,6.944-6.846V25.707
				C347.201,21.941,344.076,18.861,340.257,18.861z"/>
		</g>
		<path style="fill:#FFFFFF;" d="M155.426,270.415c-2.762,0-5-2.238-5-5v-62.93c0-2.35-1.938-4.295-4.318-4.336
			c-19.444-0.343-35.261-16.216-35.261-35.384c0-19.52,16.111-35.4,35.914-35.4c9.629,0,18.673,3.708,25.468,10.441
			c0.808,0.804,1.971,1.279,3.117,1.279c1.196,0,2.274-0.441,3.117-1.277c6.794-6.735,15.838-10.443,25.469-10.443
			c9.631,0,18.675,3.709,25.467,10.442c0.831,0.825,1.938,1.278,3.118,1.278c1.146,0,2.313-0.479,3.118-1.279
			c6.793-6.734,15.836-10.441,25.468-10.441c19.803,0,35.913,15.881,35.913,35.4c0,19.168-15.817,35.041-35.259,35.384
			c-2.384,0.041-4.32,1.986-4.32,4.336v62.93c0,2.762-2.238,5-5,5H155.426z"/>
		<g style="opacity:0.1;">
			<path d="M161.41,192.07c0-2.35-1.938-4.295-4.318-4.336c-19.444-0.343-35.261-16.216-35.261-35.384
				c0-7.292,2.25-14.074,6.099-19.712c-10.242,6.242-17.083,17.41-17.083,30.127c0,19.168,15.816,35.041,35.261,35.384
				c2.381,0.041,4.318,1.986,4.318,4.336v62.93c0,2.762,2.238,5,5,5h5.984V192.07z"/>
		</g>
		<g>
			<path style="fill:#F39600;" d="M52.876,18.861H13.891C6.251,18.861,0,25.021,0,32.553v404.028
				c0,7.532,6.251,13.691,13.891,13.691h38.985V18.861z"/>
		</g>
		<g style="opacity:0.1;">
			<path d="M21.824,436.581V32.553c0-7.531,6.251-13.691,13.891-13.691H13.891C6.251,18.861,0,25.021,0,32.553v404.028
				c0,7.532,6.251,13.691,13.891,13.691h21.824C28.075,450.272,21.824,444.113,21.824,436.581z"/>
		</g>
		<g>
			<g>
				<path style="fill:#FAE4C8;" d="M194.084,270.415v-43.062c0-4.143-3.357-7.5-7.5-7.5s-7.5,3.357-7.5,7.5v43.062H194.084z"/>
				<path style="fill:#FAE4C8;" d="M228.777,270.415v-43.062c0-4.143-3.357-7.5-7.5-7.5c-4.143,0-7.5,3.357-7.5,7.5v43.062H228.777z
					"/>
			</g>
		</g>
		<g>
			<path style="fill:#F39600;" d="M259.206,326.448H148.657c-4.143,0-7.5-3.357-7.5-7.5c0-4.143,3.357-7.5,7.5-7.5h110.549
				c4.143,0,7.5,3.357,7.5,7.5C266.706,323.091,263.349,326.448,259.206,326.448z"/>
		</g>
		<g>
			<path style="fill:#F39600;" d="M240.971,361h-74.079c-4.143,0-7.5-3.357-7.5-7.5s3.357-7.5,7.5-7.5h74.079
				c4.143,0,7.5,3.357,7.5,7.5S245.113,361,240.971,361z"/>
		</g>
	</g>
	<g>
		<rect x="438.982" y="133.174" style="fill:#F6B142;" width="41.015" height="255.452"/>
	</g>
	<g>
		<g>
			<path style="fill:#299FBC;" d="M484.315,133.624c0,2.792-2.284,5.075-5.076,5.075H439.74c-2.791,0-5.075-2.283-5.075-5.075
				V24.507c0-2.792,2.284-5.075,5.075-5.075h39.498c2.792,0,5.076,2.283,5.076,5.075V133.624z"/>
		</g>
		<g style="opacity:0.1;">
			<path d="M456.373,133.624V24.507c0-2.792,2.284-5.075,5.076-5.075H439.74c-2.791,0-5.075,2.283-5.075,5.075v109.117
				c0,2.792,2.284,5.075,5.075,5.075h21.709C458.657,138.699,456.373,136.416,456.373,133.624z"/>
		</g>
	</g>
	<g>
		<path style="fill:#299FBC;" d="M452.441,435.9c-0.976,0-1.888-0.483-2.439-1.288c-6.211-9.076-10.33-26.216-11.018-45.848
			c-0.029-0.803,0.271-1.584,0.827-2.162c0.558-0.578,1.327-0.904,2.128-0.904h35.1c0.802,0,1.569,0.326,2.127,0.904
			c0.558,0.578,0.855,1.359,0.828,2.162c-0.688,19.633-4.806,36.773-11.018,45.848c-0.552,0.806-1.464,1.288-2.439,1.288H452.441z"
			/>
	</g>
	<g>
		<path style="fill:#008DAF;" d="M459.49,322.15c-4.143,0-7.5-3.357-7.5-7.5v-71.687c0-4.143,3.357-7.5,7.5-7.5
			c4.143,0,7.5,3.357,7.5,7.5v71.687C466.99,318.793,463.633,322.15,459.49,322.15z"/>
	</g>
	<g>
		<path style="fill:#008DAF;" d="M459.49,222.664c-4.143,0-7.5-3.357-7.5-7.5v-7.695c0-4.143,3.357-7.5,7.5-7.5
			c4.143,0,7.5,3.357,7.5,7.5v7.695C466.99,219.307,463.633,222.664,459.49,222.664z"/>
	</g>
</g>
<g>
</g>
<g>
</g>
<g>
</g>
<g>
</g>
<g>
</g>
<g>
</g>
<g>
</g>
<g>
</g>
<g>
</g>
<g>
</g>
<g>
</g>
<g>
</g>
<g>
</g>
<g>
</g>
<g>
</g>
</svg>
